<svg width="15" height="15" viewBox="0 0 15 15" fill="none" xmlns="http://www.w3.org/2000/svg">
<path d="M6.80165 2.90832C6.98506 2.53673 7.51494 2.53673 7.69835 2.90832L9.06503 5.67705C9.1378 5.82447 9.27839 5.9267 9.44107 5.95048L12.4981 6.39731C12.9081 6.45723 13.0715 6.96115 12.7747 7.25023L10.5634 9.404C10.4455 9.51887 10.3916 9.68444 10.4195 9.8467L10.9412 12.8888C11.0113 13.2973 10.5825 13.6088 10.2157 13.4159L7.48273 11.9786C7.33703 11.902 7.16297 11.902 7.01727 11.9786L4.28432 13.4159C3.9175 13.6088 3.48873 13.2973 3.55879 12.8888L4.08054 9.8467C4.10837 9.68444 4.05454 9.51887 3.93661 9.404L1.72534 7.25023C1.42854 6.96115 1.59193 6.45723 2.00189 6.39731L5.05893 5.95048C5.22161 5.9267 5.3622 5.82447 5.43497 5.67705L6.80165 2.90832Z" fill="url(#paint0_linear_1_56)"/>
<defs>
<linearGradient id="paint0_linear_1_56" x1="7.25" y1="2" x2="7.25" y2="13.8875" gradientUnits="userSpaceOnUse">
<stop stop-color="#FF8E15"/>
<stop offset="1" stop-color="#E9C300"/>
</linearGradient>
</defs>
</svg>
